<mxfile host="app.diagrams.net" modified="2023-04-25T20:51:41.349Z" agent="Mozilla/5.0 (Macintosh; Intel Mac OS X 10.15; rv:109.0) Gecko/20100101 Firefox/112.0" etag="Zpi5BC_8uRzZ4A_F8XZp" version="21.2.1" type="device">
  <diagram name="Page-1" id="6L9uvZPBlJ7MVic3wOGX">
    <mxGraphModel dx="1049" dy="1792" grid="1" gridSize="10" guides="1" tooltips="1" connect="1" arrows="1" fold="1" page="1" pageScale="1" pageWidth="850" pageHeight="1100" math="0" shadow="0">
      <root>
        <mxCell id="0" />
        <mxCell id="1" parent="0" />
        <mxCell id="7pezyGulP0ebdi_TYncm-3" value="Transcode service" style="shape=umlFrame;whiteSpace=wrap;html=1;pointerEvents=0;" vertex="1" parent="1">
          <mxGeometry x="210" y="120" width="380" height="320" as="geometry" />
        </mxCell>
        <mxCell id="7pezyGulP0ebdi_TYncm-9" value="&lt;div&gt;«Module»&lt;/div&gt;&lt;div&gt;&lt;b&gt;Kafka Consumer&lt;/b&gt;&lt;br&gt;&lt;/div&gt;" style="shape=module;align=left;spacingLeft=20;align=center;verticalAlign=top;whiteSpace=wrap;html=1;" vertex="1" parent="1">
          <mxGeometry x="190" y="-130" width="140" height="70" as="geometry" />
        </mxCell>
        <mxCell id="7pezyGulP0ebdi_TYncm-19" style="edgeStyle=orthogonalEdgeStyle;rounded=0;orthogonalLoop=1;jettySize=auto;html=1;entryX=0.5;entryY=0;entryDx=0;entryDy=0;" edge="1" parent="1" source="7pezyGulP0ebdi_TYncm-12" target="7pezyGulP0ebdi_TYncm-17">
          <mxGeometry relative="1" as="geometry" />
        </mxCell>
        <mxCell id="7pezyGulP0ebdi_TYncm-12" value="&lt;div&gt;«Handler»&lt;/div&gt;&lt;div&gt;&lt;b&gt;processTopicMessage&lt;/b&gt;&lt;br&gt;&lt;/div&gt;" style="html=1;dropTarget=0;whiteSpace=wrap;" vertex="1" parent="1">
          <mxGeometry x="285" y="140" width="140" height="70" as="geometry" />
        </mxCell>
        <mxCell id="7pezyGulP0ebdi_TYncm-13" value="" style="shape=module;jettyWidth=8;jettyHeight=4;" vertex="1" parent="7pezyGulP0ebdi_TYncm-12">
          <mxGeometry x="1" width="20" height="20" relative="1" as="geometry">
            <mxPoint x="-27" y="7" as="offset" />
          </mxGeometry>
        </mxCell>
        <mxCell id="7pezyGulP0ebdi_TYncm-17" value="&lt;div&gt;&lt;b&gt;TranscodeService&lt;/b&gt;&lt;/div&gt;" style="html=1;dropTarget=0;whiteSpace=wrap;" vertex="1" parent="1">
          <mxGeometry x="355" y="250" width="141" height="70" as="geometry" />
        </mxCell>
        <mxCell id="7pezyGulP0ebdi_TYncm-18" value="" style="shape=module;jettyWidth=8;jettyHeight=4;" vertex="1" parent="7pezyGulP0ebdi_TYncm-17">
          <mxGeometry x="1" width="20" height="20" relative="1" as="geometry">
            <mxPoint x="-27" y="7" as="offset" />
          </mxGeometry>
        </mxCell>
        <mxCell id="7pezyGulP0ebdi_TYncm-22" value="&lt;div&gt;«Lib»&lt;/div&gt;&lt;div&gt;&lt;b&gt;Kafka client&lt;/b&gt;&lt;br&gt;&lt;/div&gt;" style="shape=module;align=left;spacingLeft=20;align=center;verticalAlign=top;whiteSpace=wrap;html=1;" vertex="1" parent="1">
          <mxGeometry x="355" y="-220" width="110" height="60" as="geometry" />
        </mxCell>
        <mxCell id="7pezyGulP0ebdi_TYncm-26" value="Use" style="endArrow=open;endSize=12;dashed=1;html=1;rounded=0;exitX=0.75;exitY=0;exitDx=0;exitDy=0;" edge="1" parent="1" source="7pezyGulP0ebdi_TYncm-17" target="7pezyGulP0ebdi_TYncm-22">
          <mxGeometry width="160" relative="1" as="geometry">
            <mxPoint x="500" y="90" as="sourcePoint" />
            <mxPoint x="660" y="90" as="targetPoint" />
          </mxGeometry>
        </mxCell>
        <mxCell id="7pezyGulP0ebdi_TYncm-27" value="Use" style="endArrow=open;endSize=12;dashed=1;html=1;rounded=0;entryX=0.5;entryY=1;entryDx=0;entryDy=0;exitX=0.25;exitY=0;exitDx=0;exitDy=0;" edge="1" parent="1" source="7pezyGulP0ebdi_TYncm-12" target="7pezyGulP0ebdi_TYncm-9">
          <mxGeometry width="160" relative="1" as="geometry">
            <mxPoint x="270" y="50" as="sourcePoint" />
            <mxPoint x="430" y="50" as="targetPoint" />
          </mxGeometry>
        </mxCell>
        <mxCell id="7pezyGulP0ebdi_TYncm-28" value="&lt;div&gt;«Lib»&lt;/div&gt;&lt;div&gt;&lt;b&gt;Minio client&lt;/b&gt;&lt;br&gt;&lt;/div&gt;" style="shape=module;align=left;spacingLeft=20;align=center;verticalAlign=top;whiteSpace=wrap;html=1;" vertex="1" parent="1">
          <mxGeometry x="510" y="-220" width="120" height="60" as="geometry" />
        </mxCell>
        <mxCell id="7pezyGulP0ebdi_TYncm-29" value="Use" style="endArrow=open;endSize=12;dashed=1;html=1;rounded=0;exitX=0.872;exitY=0.029;exitDx=0;exitDy=0;exitPerimeter=0;entryX=0.5;entryY=1;entryDx=0;entryDy=0;" edge="1" parent="1" source="7pezyGulP0ebdi_TYncm-17" target="7pezyGulP0ebdi_TYncm-28">
          <mxGeometry width="160" relative="1" as="geometry">
            <mxPoint x="530" y="90" as="sourcePoint" />
            <mxPoint x="580" y="-60" as="targetPoint" />
          </mxGeometry>
        </mxCell>
        <mxCell id="7pezyGulP0ebdi_TYncm-30" value="&lt;div&gt;Audio&lt;/div&gt;&lt;div&gt;Service&lt;br&gt;&lt;/div&gt;" style="shape=umlFrame;whiteSpace=wrap;html=1;pointerEvents=0;" vertex="1" parent="1">
          <mxGeometry x="610" y="120" width="230" height="160" as="geometry" />
        </mxCell>
        <mxCell id="7pezyGulP0ebdi_TYncm-31" value="«GRPC server»&lt;br&gt;&lt;b&gt;AudioService&lt;/b&gt;" style="html=1;dropTarget=0;whiteSpace=wrap;" vertex="1" parent="1">
          <mxGeometry x="660" y="170" width="140" height="70" as="geometry" />
        </mxCell>
        <mxCell id="7pezyGulP0ebdi_TYncm-32" value="" style="shape=module;jettyWidth=8;jettyHeight=4;" vertex="1" parent="7pezyGulP0ebdi_TYncm-31">
          <mxGeometry x="1" width="20" height="20" relative="1" as="geometry">
            <mxPoint x="-27" y="7" as="offset" />
          </mxGeometry>
        </mxCell>
        <mxCell id="7pezyGulP0ebdi_TYncm-33" value="&lt;div&gt;«Utils»&lt;/div&gt;&lt;div&gt;&lt;b&gt;MinioService&lt;/b&gt;&lt;br&gt;&lt;/div&gt;" style="shape=module;align=left;spacingLeft=20;align=center;verticalAlign=top;whiteSpace=wrap;html=1;" vertex="1" parent="1">
          <mxGeometry x="840" y="-130" width="130" height="60" as="geometry" />
        </mxCell>
        <mxCell id="7pezyGulP0ebdi_TYncm-34" value="&lt;div&gt;«Lib»&lt;/div&gt;&lt;div&gt;&lt;b&gt;Database client&lt;/b&gt;&lt;br&gt;&lt;/div&gt;" style="shape=module;align=left;spacingLeft=20;align=center;verticalAlign=top;whiteSpace=wrap;html=1;" vertex="1" parent="1">
          <mxGeometry x="670" y="-220" width="130" height="60" as="geometry" />
        </mxCell>
        <mxCell id="7pezyGulP0ebdi_TYncm-36" value="Use" style="endArrow=open;endSize=12;dashed=1;html=1;rounded=0;entryX=0.5;entryY=1;entryDx=0;entryDy=0;" edge="1" parent="1" source="7pezyGulP0ebdi_TYncm-31" target="7pezyGulP0ebdi_TYncm-34">
          <mxGeometry width="160" relative="1" as="geometry">
            <mxPoint x="710" y="20" as="sourcePoint" />
            <mxPoint x="870" y="20" as="targetPoint" />
          </mxGeometry>
        </mxCell>
        <mxCell id="7pezyGulP0ebdi_TYncm-38" value="Use" style="endArrow=open;endSize=12;dashed=1;html=1;rounded=0;" edge="1" parent="1" source="7pezyGulP0ebdi_TYncm-31" target="7pezyGulP0ebdi_TYncm-33">
          <mxGeometry width="160" relative="1" as="geometry">
            <mxPoint x="770" y="50" as="sourcePoint" />
            <mxPoint x="930" y="50" as="targetPoint" />
          </mxGeometry>
        </mxCell>
        <mxCell id="7pezyGulP0ebdi_TYncm-40" value="Use" style="endArrow=open;endSize=12;dashed=1;html=1;rounded=0;entryX=1;entryY=1;entryDx=0;entryDy=0;exitX=0.25;exitY=0;exitDx=0;exitDy=0;" edge="1" parent="1" source="7pezyGulP0ebdi_TYncm-31" target="7pezyGulP0ebdi_TYncm-9">
          <mxGeometry width="160" relative="1" as="geometry">
            <mxPoint x="570" y="60" as="sourcePoint" />
            <mxPoint x="730" y="60" as="targetPoint" />
            <Array as="points">
              <mxPoint x="620" y="-10" />
            </Array>
          </mxGeometry>
        </mxCell>
        <mxCell id="7pezyGulP0ebdi_TYncm-41" value="Upload service" style="shape=umlFrame;whiteSpace=wrap;html=1;pointerEvents=0;" vertex="1" parent="1">
          <mxGeometry x="960" y="120" width="210" height="160" as="geometry" />
        </mxCell>
        <mxCell id="7pezyGulP0ebdi_TYncm-47" style="edgeStyle=orthogonalEdgeStyle;rounded=0;orthogonalLoop=1;jettySize=auto;html=1;entryX=1;entryY=0.5;entryDx=0;entryDy=0;" edge="1" parent="1" source="7pezyGulP0ebdi_TYncm-42" target="7pezyGulP0ebdi_TYncm-31">
          <mxGeometry relative="1" as="geometry" />
        </mxCell>
        <mxCell id="7pezyGulP0ebdi_TYncm-42" value="«GRPC server»&lt;br&gt;&lt;b&gt;UploadService&lt;/b&gt;" style="html=1;dropTarget=0;whiteSpace=wrap;" vertex="1" parent="1">
          <mxGeometry x="990" y="170" width="140" height="70" as="geometry" />
        </mxCell>
        <mxCell id="7pezyGulP0ebdi_TYncm-43" value="" style="shape=module;jettyWidth=8;jettyHeight=4;" vertex="1" parent="7pezyGulP0ebdi_TYncm-42">
          <mxGeometry x="1" width="20" height="20" relative="1" as="geometry">
            <mxPoint x="-27" y="7" as="offset" />
          </mxGeometry>
        </mxCell>
        <mxCell id="7pezyGulP0ebdi_TYncm-44" value="Use" style="endArrow=open;endSize=12;dashed=1;html=1;rounded=0;entryX=1;entryY=1;entryDx=0;entryDy=0;" edge="1" parent="1" source="7pezyGulP0ebdi_TYncm-33" target="7pezyGulP0ebdi_TYncm-28">
          <mxGeometry x="0.2774" width="160" relative="1" as="geometry">
            <mxPoint x="890" y="-190" as="sourcePoint" />
            <mxPoint x="1050" y="-190" as="targetPoint" />
            <Array as="points">
              <mxPoint x="690" y="-100" />
            </Array>
            <mxPoint as="offset" />
          </mxGeometry>
        </mxCell>
        <mxCell id="7pezyGulP0ebdi_TYncm-45" value="Use" style="endArrow=open;endSize=12;dashed=1;html=1;rounded=0;exitX=0.5;exitY=0;exitDx=0;exitDy=0;entryX=0;entryY=0.75;entryDx=10;entryDy=0;entryPerimeter=0;" edge="1" parent="1" source="7pezyGulP0ebdi_TYncm-9" target="7pezyGulP0ebdi_TYncm-22">
          <mxGeometry width="160" relative="1" as="geometry">
            <mxPoint x="250" y="-220" as="sourcePoint" />
            <mxPoint x="410" y="-220" as="targetPoint" />
          </mxGeometry>
        </mxCell>
        <mxCell id="7pezyGulP0ebdi_TYncm-48" value="Use" style="endArrow=open;endSize=12;dashed=1;html=1;rounded=0;exitX=0.404;exitY=0.003;exitDx=0;exitDy=0;exitPerimeter=0;entryX=1;entryY=1;entryDx=0;entryDy=0;" edge="1" parent="1" source="7pezyGulP0ebdi_TYncm-31" target="7pezyGulP0ebdi_TYncm-22">
          <mxGeometry x="0.6938" y="2" width="160" relative="1" as="geometry">
            <mxPoint x="650" as="sourcePoint" />
            <mxPoint x="810" as="targetPoint" />
            <Array as="points">
              <mxPoint x="670" y="-20" />
            </Array>
            <mxPoint as="offset" />
          </mxGeometry>
        </mxCell>
        <mxCell id="7pezyGulP0ebdi_TYncm-49" value="Use" style="endArrow=open;endSize=12;dashed=1;html=1;rounded=0;exitX=0.5;exitY=0;exitDx=0;exitDy=0;entryX=0.75;entryY=1;entryDx=0;entryDy=0;" edge="1" parent="1" source="7pezyGulP0ebdi_TYncm-42" target="7pezyGulP0ebdi_TYncm-33">
          <mxGeometry x="-0.0703" y="3" width="160" relative="1" as="geometry">
            <mxPoint x="1040" y="-20" as="sourcePoint" />
            <mxPoint x="1200" y="-20" as="targetPoint" />
            <mxPoint as="offset" />
          </mxGeometry>
        </mxCell>
        <mxCell id="7pezyGulP0ebdi_TYncm-50" value="Client server side" style="shape=umlFrame;whiteSpace=wrap;html=1;pointerEvents=0;width=100;height=40;" vertex="1" parent="1">
          <mxGeometry x="800" y="390" width="270" height="150" as="geometry" />
        </mxCell>
        <mxCell id="7pezyGulP0ebdi_TYncm-53" style="edgeStyle=orthogonalEdgeStyle;rounded=0;orthogonalLoop=1;jettySize=auto;html=1;entryX=0.5;entryY=1;entryDx=0;entryDy=0;" edge="1" parent="1" source="7pezyGulP0ebdi_TYncm-51" target="7pezyGulP0ebdi_TYncm-31">
          <mxGeometry relative="1" as="geometry" />
        </mxCell>
        <mxCell id="7pezyGulP0ebdi_TYncm-54" style="edgeStyle=orthogonalEdgeStyle;rounded=0;orthogonalLoop=1;jettySize=auto;html=1;" edge="1" parent="1" source="7pezyGulP0ebdi_TYncm-51" target="7pezyGulP0ebdi_TYncm-42">
          <mxGeometry relative="1" as="geometry" />
        </mxCell>
        <mxCell id="7pezyGulP0ebdi_TYncm-51" value="&lt;div&gt;«HTTP handler»&lt;b&gt;&lt;br&gt;&lt;/b&gt;&lt;/div&gt;&lt;div&gt;&lt;b&gt;POST method&lt;br&gt;&lt;/b&gt;&lt;/div&gt;" style="html=1;dropTarget=0;whiteSpace=wrap;" vertex="1" parent="1">
          <mxGeometry x="910" y="430" width="135" height="80" as="geometry" />
        </mxCell>
        <mxCell id="7pezyGulP0ebdi_TYncm-52" value="" style="shape=module;jettyWidth=8;jettyHeight=4;" vertex="1" parent="7pezyGulP0ebdi_TYncm-51">
          <mxGeometry x="1" width="20" height="20" relative="1" as="geometry">
            <mxPoint x="-27" y="7" as="offset" />
          </mxGeometry>
        </mxCell>
        <mxCell id="7pezyGulP0ebdi_TYncm-58" style="edgeStyle=orthogonalEdgeStyle;rounded=0;orthogonalLoop=1;jettySize=auto;html=1;entryX=0.182;entryY=1.051;entryDx=0;entryDy=0;entryPerimeter=0;" edge="1" parent="1" source="7pezyGulP0ebdi_TYncm-56" target="7pezyGulP0ebdi_TYncm-31">
          <mxGeometry relative="1" as="geometry" />
        </mxCell>
        <mxCell id="7pezyGulP0ebdi_TYncm-56" value="&lt;b&gt;Client&lt;/b&gt;" style="html=1;dropTarget=0;whiteSpace=wrap;" vertex="1" parent="1">
          <mxGeometry x="450" y="470" width="180" height="90" as="geometry" />
        </mxCell>
        <mxCell id="7pezyGulP0ebdi_TYncm-57" value="" style="shape=module;jettyWidth=8;jettyHeight=4;" vertex="1" parent="7pezyGulP0ebdi_TYncm-56">
          <mxGeometry x="1" width="20" height="20" relative="1" as="geometry">
            <mxPoint x="-27" y="7" as="offset" />
          </mxGeometry>
        </mxCell>
        <mxCell id="7pezyGulP0ebdi_TYncm-59" value="Identity Service" style="shape=umlFrame;whiteSpace=wrap;html=1;pointerEvents=0;" vertex="1" parent="1">
          <mxGeometry x="1050" y="-320" width="240" height="150" as="geometry" />
        </mxCell>
        <mxCell id="7pezyGulP0ebdi_TYncm-62" value="&lt;div&gt;«GRPC server»&lt;/div&gt;&lt;div&gt;&lt;b&gt;IdentityService&lt;/b&gt;&lt;br&gt;&lt;/div&gt;" style="html=1;dropTarget=0;whiteSpace=wrap;" vertex="1" parent="1">
          <mxGeometry x="1100" y="-280" width="140" height="70" as="geometry" />
        </mxCell>
        <mxCell id="7pezyGulP0ebdi_TYncm-63" value="" style="shape=module;jettyWidth=8;jettyHeight=4;" vertex="1" parent="7pezyGulP0ebdi_TYncm-62">
          <mxGeometry x="1" width="20" height="20" relative="1" as="geometry">
            <mxPoint x="-27" y="7" as="offset" />
          </mxGeometry>
        </mxCell>
        <mxCell id="7pezyGulP0ebdi_TYncm-64" value="Use" style="endArrow=open;endSize=12;dashed=1;html=1;rounded=0;entryX=1;entryY=0;entryDx=0;entryDy=0;exitX=0;exitY=0.5;exitDx=0;exitDy=0;" edge="1" parent="1" source="7pezyGulP0ebdi_TYncm-62" target="7pezyGulP0ebdi_TYncm-34">
          <mxGeometry x="-0.016" y="13" width="160" relative="1" as="geometry">
            <mxPoint x="1000" y="-290" as="sourcePoint" />
            <mxPoint x="1160" y="-290" as="targetPoint" />
            <mxPoint as="offset" />
          </mxGeometry>
        </mxCell>
        <mxCell id="7pezyGulP0ebdi_TYncm-65" value="&lt;div&gt;«Utils»&lt;/div&gt;&lt;div&gt;&lt;b&gt;FFMpeg&lt;/b&gt;&lt;br&gt;&lt;/div&gt;" style="shape=module;align=left;spacingLeft=20;align=center;verticalAlign=top;whiteSpace=wrap;html=1;" vertex="1" parent="1">
          <mxGeometry x="220" y="370" width="100" height="60" as="geometry" />
        </mxCell>
        <mxCell id="7pezyGulP0ebdi_TYncm-66" value="&lt;div&gt;«Utils»&lt;/div&gt;&lt;div&gt;&lt;b&gt;Shaka&lt;/b&gt;&lt;br&gt;&lt;/div&gt;" style="shape=module;align=left;spacingLeft=20;align=center;verticalAlign=top;whiteSpace=wrap;html=1;" vertex="1" parent="1">
          <mxGeometry x="465" y="370" width="115" height="60" as="geometry" />
        </mxCell>
        <mxCell id="7pezyGulP0ebdi_TYncm-67" value="Use" style="endArrow=open;endSize=12;dashed=1;html=1;rounded=0;exitX=0;exitY=1;exitDx=0;exitDy=0;entryX=1;entryY=0;entryDx=0;entryDy=0;" edge="1" parent="1" source="7pezyGulP0ebdi_TYncm-17" target="7pezyGulP0ebdi_TYncm-65">
          <mxGeometry x="-0.1165" y="-3" width="160" relative="1" as="geometry">
            <mxPoint x="300" y="350" as="sourcePoint" />
            <mxPoint x="460" y="350" as="targetPoint" />
            <mxPoint as="offset" />
          </mxGeometry>
        </mxCell>
        <mxCell id="7pezyGulP0ebdi_TYncm-68" value="Use" style="endArrow=open;endSize=12;dashed=1;html=1;rounded=0;exitX=1;exitY=1;exitDx=0;exitDy=0;entryX=0.584;entryY=-0.033;entryDx=0;entryDy=0;entryPerimeter=0;" edge="1" parent="1" source="7pezyGulP0ebdi_TYncm-17" target="7pezyGulP0ebdi_TYncm-66">
          <mxGeometry width="160" relative="1" as="geometry">
            <mxPoint x="410" y="340" as="sourcePoint" />
            <mxPoint x="570" y="340" as="targetPoint" />
          </mxGeometry>
        </mxCell>
      </root>
    </mxGraphModel>
  </diagram>
</mxfile>
